<mxfile host="app.diagrams.net" modified="2021-09-16T07:25:26.562Z" agent="5.0 (X11)" etag="lxfvhkuPMT03HHz8ieID" version="15.2.7" type="github">
  <diagram id="Dq3Bf0Ob6L3IU1oHNY2R" name="Page-1">
    <mxGraphModel dx="2300" dy="299" grid="1" gridSize="10" guides="1" tooltips="1" connect="1" arrows="1" fold="1" page="1" pageScale="1" pageWidth="850" pageHeight="1100" math="0" shadow="0">
      <root>
        <mxCell id="0" />
        <mxCell id="1" parent="0" />
        <mxCell id="JVfyQsDlpFgOe32HRUAi-1" style="edgeStyle=orthogonalEdgeStyle;rounded=0;orthogonalLoop=1;jettySize=auto;html=1;" parent="1" source="JVfyQsDlpFgOe32HRUAi-2" target="JVfyQsDlpFgOe32HRUAi-4" edge="1">
          <mxGeometry relative="1" as="geometry" />
        </mxCell>
        <mxCell id="JVfyQsDlpFgOe32HRUAi-2" value="Audit of Items of Financial Statements" style="rounded=0;whiteSpace=wrap;html=1;" parent="1" vertex="1">
          <mxGeometry x="320" width="200" height="40" as="geometry" />
        </mxCell>
        <mxCell id="JVfyQsDlpFgOe32HRUAi-3" style="edgeStyle=orthogonalEdgeStyle;rounded=0;orthogonalLoop=1;jettySize=auto;html=1;" parent="1" source="JVfyQsDlpFgOe32HRUAi-4" target="JVfyQsDlpFgOe32HRUAi-11" edge="1">
          <mxGeometry relative="1" as="geometry" />
        </mxCell>
        <mxCell id="JVfyQsDlpFgOe32HRUAi-4" value="Auditor needs to obtain SAAE to verify mgmt’s assertions i.e. representations made by mgmt regarding financial items- transactions, balances and disclosures. " style="rounded=0;whiteSpace=wrap;html=1;" parent="1" vertex="1">
          <mxGeometry x="240" y="60" width="360" height="50" as="geometry" />
        </mxCell>
        <mxCell id="JVfyQsDlpFgOe32HRUAi-5" style="edgeStyle=orthogonalEdgeStyle;rounded=0;orthogonalLoop=1;jettySize=auto;html=1;" parent="1" source="JVfyQsDlpFgOe32HRUAi-6" target="JVfyQsDlpFgOe32HRUAi-7" edge="1">
          <mxGeometry relative="1" as="geometry" />
        </mxCell>
        <mxCell id="JVfyQsDlpFgOe32HRUAi-6" value="Transactions" style="rounded=1;whiteSpace=wrap;html=1;" parent="1" vertex="1">
          <mxGeometry x="-20" y="210" width="120" height="40" as="geometry" />
        </mxCell>
        <mxCell id="JVfyQsDlpFgOe32HRUAi-7" value="&lt;div&gt;&lt;u&gt;Consider&amp;nbsp; following&amp;nbsp; assertions&lt;/u&gt;&lt;br&gt;&lt;/div&gt;&lt;div&gt;&lt;br&gt;&lt;/div&gt;&lt;div&gt;&lt;u&gt;&lt;b&gt;Measurement&lt;/b&gt;&lt;/u&gt;: Transactions have been recorded accurately at their appropriate amounts and further, transactions have been&amp;nbsp;&amp;nbsp; classified and presented fairly in the FS. &amp;nbsp;&amp;nbsp; &lt;br&gt;&lt;/div&gt;&lt;div&gt;&lt;br&gt;&lt;/div&gt;&lt;div&gt;&lt;u&gt;&lt;b&gt;Occurrence&lt;/b&gt;&lt;/u&gt;: Transactions recognized in the FS have occurred &lt;br&gt;&lt;/div&gt;&lt;div&gt;and relate to the entity &amp;nbsp;&amp;nbsp; &lt;br&gt;&lt;/div&gt;&lt;div&gt;&lt;br&gt;&lt;/div&gt;&lt;div&gt;&lt;u&gt;&lt;b&gt;Completeness&lt;/b&gt;&lt;/u&gt;: All transactions that were supposed to be &lt;br&gt;&lt;/div&gt;&lt;div&gt;recorded have been recognized in the FS and further, transactions have been recognized in the correct accounting periods&lt;/div&gt;" style="rounded=0;whiteSpace=wrap;html=1;" parent="1" vertex="1">
          <mxGeometry x="-140" y="270" width="360" height="190" as="geometry" />
        </mxCell>
        <mxCell id="JVfyQsDlpFgOe32HRUAi-8" style="edgeStyle=orthogonalEdgeStyle;rounded=0;orthogonalLoop=1;jettySize=auto;html=1;" parent="1" source="JVfyQsDlpFgOe32HRUAi-11" target="JVfyQsDlpFgOe32HRUAi-15" edge="1">
          <mxGeometry relative="1" as="geometry" />
        </mxCell>
        <mxCell id="JVfyQsDlpFgOe32HRUAi-9" style="edgeStyle=orthogonalEdgeStyle;rounded=0;orthogonalLoop=1;jettySize=auto;html=1;" parent="1" source="JVfyQsDlpFgOe32HRUAi-11" target="JVfyQsDlpFgOe32HRUAi-13" edge="1">
          <mxGeometry relative="1" as="geometry" />
        </mxCell>
        <mxCell id="JVfyQsDlpFgOe32HRUAi-10" style="edgeStyle=orthogonalEdgeStyle;rounded=0;orthogonalLoop=1;jettySize=auto;html=1;" parent="1" source="JVfyQsDlpFgOe32HRUAi-11" target="JVfyQsDlpFgOe32HRUAi-6" edge="1">
          <mxGeometry relative="1" as="geometry" />
        </mxCell>
        <mxCell id="JVfyQsDlpFgOe32HRUAi-11" value="Verifing" style="rounded=1;whiteSpace=wrap;html=1;" parent="1" vertex="1">
          <mxGeometry x="360" y="130" width="120" height="40" as="geometry" />
        </mxCell>
        <mxCell id="JVfyQsDlpFgOe32HRUAi-12" style="edgeStyle=orthogonalEdgeStyle;rounded=0;orthogonalLoop=1;jettySize=auto;html=1;" parent="1" source="JVfyQsDlpFgOe32HRUAi-13" target="JVfyQsDlpFgOe32HRUAi-17" edge="1">
          <mxGeometry relative="1" as="geometry" />
        </mxCell>
        <mxCell id="JVfyQsDlpFgOe32HRUAi-13" value="presentation and disclosure" style="rounded=1;whiteSpace=wrap;html=1;" parent="1" vertex="1">
          <mxGeometry x="740" y="210" width="120" height="40" as="geometry" />
        </mxCell>
        <mxCell id="JVfyQsDlpFgOe32HRUAi-14" style="edgeStyle=orthogonalEdgeStyle;rounded=0;orthogonalLoop=1;jettySize=auto;html=1;" parent="1" source="JVfyQsDlpFgOe32HRUAi-15" target="JVfyQsDlpFgOe32HRUAi-16" edge="1">
          <mxGeometry relative="1" as="geometry" />
        </mxCell>
        <mxCell id="JVfyQsDlpFgOe32HRUAi-15" value="Balances" style="rounded=1;whiteSpace=wrap;html=1;" parent="1" vertex="1">
          <mxGeometry x="360" y="210" width="120" height="40" as="geometry" />
        </mxCell>
        <mxCell id="JVfyQsDlpFgOe32HRUAi-16" value="&lt;div&gt;&lt;u&gt;Consider&amp;nbsp; following&amp;nbsp; assertions&lt;/u&gt;&lt;br&gt;&lt;/div&gt;&lt;div&gt;&lt;br&gt;&lt;/div&gt;&lt;div&gt;&lt;u&gt;&lt;b&gt;Existence&lt;/b&gt;&lt;/u&gt;: Assets, liabilities and equity balances exist as at the period end.&lt;br&gt;&lt;/div&gt;&lt;div&gt;&lt;br&gt;&lt;/div&gt;&lt;div&gt;&lt;u&gt;&lt;b&gt;Valuation&lt;/b&gt;&lt;/u&gt;: Assets, liabilities and equity balances have been valued appropriately.&lt;br&gt;&lt;/div&gt;&lt;div&gt;&lt;br&gt;&lt;/div&gt;&lt;div&gt;&lt;u&gt;&lt;b&gt;Rights &amp;amp; Obligations&lt;/b&gt;&lt;/u&gt;: Entity has the right to ownership or use of&amp;nbsp; the recognized assets, and the liabilities recognized in the FS represent the obligations of the entity&amp;nbsp;&amp;nbsp; &lt;br&gt;&lt;/div&gt;&lt;div&gt;&lt;br&gt;&lt;/div&gt;&lt;div&gt;&lt;u&gt;&lt;b&gt;Completeness&lt;/b&gt;&lt;/u&gt;: All assets, liabilities and equity balances that were supposed to be recorded have been recognized in the FS&lt;br&gt;&lt;/div&gt;" style="rounded=0;whiteSpace=wrap;html=1;" parent="1" vertex="1">
          <mxGeometry x="240" y="270" width="360" height="220" as="geometry" />
        </mxCell>
        <mxCell id="JVfyQsDlpFgOe32HRUAi-17" value="&lt;div&gt;&lt;u&gt;Consider&amp;nbsp; following&amp;nbsp; assertions&lt;/u&gt;&lt;br&gt;&lt;/div&gt;&lt;div&gt;&lt;br&gt;&lt;/div&gt;&lt;div&gt;&lt;u&gt;&lt;b&gt;Occurrence (O) and Existence (E)&lt;/b&gt;&lt;/u&gt;: Transactions and events disclosed in the FS have occurred and relate to the entity.&amp;nbsp; &lt;br&gt;&lt;/div&gt;&lt;div&gt;&lt;br&gt;&lt;/div&gt;&lt;div&gt;&lt;u&gt;&lt;b&gt;Completeness&lt;/b&gt;&lt;/u&gt;: All transactions, balances, events and other&amp;nbsp; matters that should have been disclosed have been disclosed in the FS.&lt;br&gt;&lt;/div&gt;&lt;div&gt;&lt;br&gt;&lt;/div&gt;&lt;div&gt;&lt;u&gt;&lt;b&gt;Measurement(M) and Valuation(V)&lt;/b&gt;&lt;/u&gt;: Transactions, events,&amp;nbsp; balances and other financial matters have been measured and disclosed correctly in a manner that promotes understand ability of the FS.&lt;br&gt;&lt;/div&gt;" style="rounded=0;whiteSpace=wrap;html=1;" parent="1" vertex="1">
          <mxGeometry x="620" y="270" width="360" height="200" as="geometry" />
        </mxCell>
        <mxCell id="HmFCgczZDOIW98-LxWr3-2" style="edgeStyle=orthogonalEdgeStyle;rounded=0;orthogonalLoop=1;jettySize=auto;html=1;" parent="1" source="JVfyQsDlpFgOe32HRUAi-18" target="HmFCgczZDOIW98-LxWr3-1" edge="1" visible="0">
          <mxGeometry relative="1" as="geometry" />
        </mxCell>
        <mxCell id="JVfyQsDlpFgOe32HRUAi-18" value="Share Capital" style="whiteSpace=wrap;html=1;align=center;treeFolding=1;treeMoving=1;newEdgeStyle={&quot;edgeStyle&quot;:&quot;elbowEdgeStyle&quot;,&quot;startArrow&quot;:&quot;none&quot;,&quot;endArrow&quot;:&quot;none&quot;};fillColor=#ffffff;fontFamily=Helvetica;fontSize=12;fontColor=#000000;strokeColor=#000000;" parent="1" vertex="1" collapsed="1">
          <mxGeometry x="-1084.5" y="640" width="120" height="40" as="geometry" />
        </mxCell>
        <mxCell id="HmFCgczZDOIW98-LxWr3-4" style="edgeStyle=orthogonalEdgeStyle;rounded=0;orthogonalLoop=1;jettySize=auto;html=1;" parent="1" source="JVfyQsDlpFgOe32HRUAi-19" target="HmFCgczZDOIW98-LxWr3-3" edge="1" visible="0">
          <mxGeometry relative="1" as="geometry" />
        </mxCell>
        <mxCell id="JVfyQsDlpFgOe32HRUAi-19" value="&lt;div&gt;Reserves and &lt;br&gt;&lt;/div&gt;&lt;div&gt;Surplus &lt;/div&gt;" style="whiteSpace=wrap;html=1;align=center;treeFolding=1;treeMoving=1;newEdgeStyle={&quot;edgeStyle&quot;:&quot;elbowEdgeStyle&quot;,&quot;startArrow&quot;:&quot;none&quot;,&quot;endArrow&quot;:&quot;none&quot;};fillColor=#ffffff;fontFamily=Helvetica;fontSize=12;fontColor=#000000;strokeColor=#000000;" parent="1" vertex="1" collapsed="1">
          <mxGeometry x="-919.5" y="640" width="120" height="40" as="geometry" />
        </mxCell>
        <mxCell id="HmFCgczZDOIW98-LxWr3-6" style="edgeStyle=orthogonalEdgeStyle;rounded=0;orthogonalLoop=1;jettySize=auto;html=1;" parent="1" source="JVfyQsDlpFgOe32HRUAi-20" target="HmFCgczZDOIW98-LxWr3-5" edge="1" visible="0">
          <mxGeometry relative="1" as="geometry" />
        </mxCell>
        <mxCell id="JVfyQsDlpFgOe32HRUAi-20" value="Borrowings" style="whiteSpace=wrap;html=1;align=center;treeFolding=1;treeMoving=1;newEdgeStyle={&quot;edgeStyle&quot;:&quot;elbowEdgeStyle&quot;,&quot;startArrow&quot;:&quot;none&quot;,&quot;endArrow&quot;:&quot;none&quot;};fillColor=#ffffff;fontFamily=Helvetica;fontSize=12;fontColor=#000000;strokeColor=#000000;" parent="1" vertex="1" collapsed="1">
          <mxGeometry x="-759.5" y="640" width="120" height="40" as="geometry" />
        </mxCell>
        <mxCell id="UfjtboCrBmcmnvGXadqM-1" style="edgeStyle=orthogonalEdgeStyle;rounded=0;orthogonalLoop=1;jettySize=auto;html=1;" edge="1" parent="1" source="JVfyQsDlpFgOe32HRUAi-21" target="HmFCgczZDOIW98-LxWr3-7" visible="0">
          <mxGeometry relative="1" as="geometry" />
        </mxCell>
        <mxCell id="JVfyQsDlpFgOe32HRUAi-21" value="&amp;nbsp; Trade Receivables" style="whiteSpace=wrap;html=1;align=center;treeFolding=1;treeMoving=1;newEdgeStyle={&quot;edgeStyle&quot;:&quot;elbowEdgeStyle&quot;,&quot;startArrow&quot;:&quot;none&quot;,&quot;endArrow&quot;:&quot;none&quot;};fillColor=#ffffff;fontFamily=Helvetica;fontSize=12;fontColor=#000000;strokeColor=#000000;" parent="1" vertex="1" collapsed="1">
          <mxGeometry x="-599.5" y="640" width="120" height="40" as="geometry" />
        </mxCell>
        <mxCell id="UfjtboCrBmcmnvGXadqM-3" style="edgeStyle=orthogonalEdgeStyle;rounded=0;orthogonalLoop=1;jettySize=auto;html=1;" edge="1" parent="1" source="JVfyQsDlpFgOe32HRUAi-22" target="UfjtboCrBmcmnvGXadqM-2" visible="0">
          <mxGeometry relative="1" as="geometry" />
        </mxCell>
        <mxCell id="JVfyQsDlpFgOe32HRUAi-22" value="Cash and Cash equivalents" style="whiteSpace=wrap;html=1;align=center;treeFolding=1;treeMoving=1;newEdgeStyle={&quot;edgeStyle&quot;:&quot;elbowEdgeStyle&quot;,&quot;startArrow&quot;:&quot;none&quot;,&quot;endArrow&quot;:&quot;none&quot;};fillColor=#ffffff;fontFamily=Helvetica;fontSize=12;fontColor=#000000;strokeColor=#000000;" parent="1" vertex="1" collapsed="1">
          <mxGeometry x="-439.5" y="640" width="120" height="40" as="geometry" />
        </mxCell>
        <mxCell id="UfjtboCrBmcmnvGXadqM-5" style="edgeStyle=orthogonalEdgeStyle;rounded=0;orthogonalLoop=1;jettySize=auto;html=1;" edge="1" parent="1" source="JVfyQsDlpFgOe32HRUAi-23" target="UfjtboCrBmcmnvGXadqM-4" visible="0">
          <mxGeometry relative="1" as="geometry" />
        </mxCell>
        <mxCell id="JVfyQsDlpFgOe32HRUAi-23" value="Inventories" style="whiteSpace=wrap;html=1;align=center;treeFolding=1;treeMoving=1;newEdgeStyle={&quot;edgeStyle&quot;:&quot;elbowEdgeStyle&quot;,&quot;startArrow&quot;:&quot;none&quot;,&quot;endArrow&quot;:&quot;none&quot;};fillColor=#ffffff;fontFamily=Helvetica;fontSize=12;fontColor=#000000;strokeColor=#000000;" parent="1" vertex="1" collapsed="1">
          <mxGeometry x="-279.5" y="640" width="120" height="40" as="geometry" />
        </mxCell>
        <mxCell id="UfjtboCrBmcmnvGXadqM-7" style="edgeStyle=orthogonalEdgeStyle;rounded=0;orthogonalLoop=1;jettySize=auto;html=1;" edge="1" parent="1" source="JVfyQsDlpFgOe32HRUAi-24" target="UfjtboCrBmcmnvGXadqM-6" visible="0">
          <mxGeometry relative="1" as="geometry" />
        </mxCell>
        <mxCell id="JVfyQsDlpFgOe32HRUAi-24" value="&lt;div&gt;Fixed Assets &lt;br&gt;&lt;/div&gt;&lt;div&gt;(PPE) &lt;/div&gt;" style="whiteSpace=wrap;html=1;align=center;treeFolding=1;treeMoving=1;newEdgeStyle={&quot;edgeStyle&quot;:&quot;elbowEdgeStyle&quot;,&quot;startArrow&quot;:&quot;none&quot;,&quot;endArrow&quot;:&quot;none&quot;};fillColor=#ffffff;fontFamily=Helvetica;fontSize=12;fontColor=#000000;strokeColor=#000000;" parent="1" vertex="1" collapsed="1">
          <mxGeometry x="-119.5" y="640" width="120" height="40" as="geometry" />
        </mxCell>
        <mxCell id="UfjtboCrBmcmnvGXadqM-9" style="edgeStyle=orthogonalEdgeStyle;rounded=0;orthogonalLoop=1;jettySize=auto;html=1;" edge="1" parent="1" source="JVfyQsDlpFgOe32HRUAi-25" target="UfjtboCrBmcmnvGXadqM-8" visible="0">
          <mxGeometry relative="1" as="geometry" />
        </mxCell>
        <mxCell id="JVfyQsDlpFgOe32HRUAi-25" value="Intangible Asset" style="whiteSpace=wrap;html=1;align=center;treeFolding=1;treeMoving=1;newEdgeStyle={&quot;edgeStyle&quot;:&quot;elbowEdgeStyle&quot;,&quot;startArrow&quot;:&quot;none&quot;,&quot;endArrow&quot;:&quot;none&quot;};fillColor=#ffffff;fontFamily=Helvetica;fontSize=12;fontColor=#000000;strokeColor=#000000;" parent="1" vertex="1" collapsed="1">
          <mxGeometry x="40.5" y="640" width="120" height="40" as="geometry" />
        </mxCell>
        <mxCell id="UfjtboCrBmcmnvGXadqM-11" style="edgeStyle=orthogonalEdgeStyle;rounded=0;orthogonalLoop=1;jettySize=auto;html=1;entryX=0.5;entryY=0;entryDx=0;entryDy=0;" edge="1" parent="1" source="JVfyQsDlpFgOe32HRUAi-26" target="UfjtboCrBmcmnvGXadqM-10" visible="0">
          <mxGeometry relative="1" as="geometry" />
        </mxCell>
        <mxCell id="JVfyQsDlpFgOe32HRUAi-26" value="&lt;div&gt;Trade Payables &lt;br&gt;&lt;/div&gt;&lt;div&gt;and Current Liabilities&lt;/div&gt;" style="whiteSpace=wrap;html=1;align=center;treeFolding=1;treeMoving=1;newEdgeStyle={&quot;edgeStyle&quot;:&quot;elbowEdgeStyle&quot;,&quot;startArrow&quot;:&quot;none&quot;,&quot;endArrow&quot;:&quot;none&quot;};fillColor=#ffffff;fontFamily=Helvetica;fontSize=12;fontColor=#000000;strokeColor=#000000;" parent="1" vertex="1" collapsed="1">
          <mxGeometry x="200.5" y="640" width="120" height="40" as="geometry" />
        </mxCell>
        <mxCell id="UfjtboCrBmcmnvGXadqM-13" style="edgeStyle=orthogonalEdgeStyle;rounded=0;orthogonalLoop=1;jettySize=auto;html=1;" edge="1" parent="1" source="JVfyQsDlpFgOe32HRUAi-27" target="UfjtboCrBmcmnvGXadqM-12" visible="0">
          <mxGeometry relative="1" as="geometry" />
        </mxCell>
        <mxCell id="JVfyQsDlpFgOe32HRUAi-27" value="&lt;div&gt;Loans &lt;br&gt;&lt;/div&gt;&lt;div&gt;and Advances&lt;/div&gt;" style="whiteSpace=wrap;html=1;align=center;treeFolding=1;treeMoving=1;newEdgeStyle={&quot;edgeStyle&quot;:&quot;elbowEdgeStyle&quot;,&quot;startArrow&quot;:&quot;none&quot;,&quot;endArrow&quot;:&quot;none&quot;};fillColor=#ffffff;fontFamily=Helvetica;fontSize=12;fontColor=#000000;strokeColor=#000000;" parent="1" vertex="1" collapsed="1">
          <mxGeometry x="360.5" y="640" width="120" height="40" as="geometry" />
        </mxCell>
        <mxCell id="UfjtboCrBmcmnvGXadqM-15" style="edgeStyle=orthogonalEdgeStyle;rounded=0;orthogonalLoop=1;jettySize=auto;html=1;" edge="1" parent="1" source="JVfyQsDlpFgOe32HRUAi-28" target="UfjtboCrBmcmnvGXadqM-14" visible="0">
          <mxGeometry relative="1" as="geometry" />
        </mxCell>
        <mxCell id="JVfyQsDlpFgOe32HRUAi-28" value="Provisions and Contingent Liability" style="whiteSpace=wrap;html=1;align=center;treeFolding=1;treeMoving=1;newEdgeStyle={&quot;edgeStyle&quot;:&quot;elbowEdgeStyle&quot;,&quot;startArrow&quot;:&quot;none&quot;,&quot;endArrow&quot;:&quot;none&quot;};fillColor=#ffffff;fontFamily=Helvetica;fontSize=12;fontColor=#000000;strokeColor=#000000;" parent="1" vertex="1" collapsed="1">
          <mxGeometry x="520.5" y="640" width="120" height="40" as="geometry" />
        </mxCell>
        <mxCell id="UfjtboCrBmcmnvGXadqM-17" style="edgeStyle=orthogonalEdgeStyle;rounded=0;orthogonalLoop=1;jettySize=auto;html=1;" edge="1" parent="1" source="JVfyQsDlpFgOe32HRUAi-29" target="UfjtboCrBmcmnvGXadqM-16" visible="0">
          <mxGeometry relative="1" as="geometry" />
        </mxCell>
        <mxCell id="JVfyQsDlpFgOe32HRUAi-29" value="&lt;div&gt;Sale of Products &lt;br&gt;&lt;/div&gt;&lt;div&gt;and Services &lt;/div&gt;" style="whiteSpace=wrap;html=1;align=center;treeFolding=1;treeMoving=1;newEdgeStyle={&quot;edgeStyle&quot;:&quot;elbowEdgeStyle&quot;,&quot;startArrow&quot;:&quot;none&quot;,&quot;endArrow&quot;:&quot;none&quot;};fillColor=#ffffff;fontFamily=Helvetica;fontSize=12;fontColor=#000000;strokeColor=#000000;" parent="1" vertex="1" collapsed="1">
          <mxGeometry x="680.5" y="640" width="120" height="40" as="geometry" />
        </mxCell>
        <mxCell id="UfjtboCrBmcmnvGXadqM-19" style="edgeStyle=orthogonalEdgeStyle;rounded=0;orthogonalLoop=1;jettySize=auto;html=1;" edge="1" parent="1" source="JVfyQsDlpFgOe32HRUAi-30" target="UfjtboCrBmcmnvGXadqM-18">
          <mxGeometry relative="1" as="geometry" />
        </mxCell>
        <mxCell id="JVfyQsDlpFgOe32HRUAi-30" value="&lt;div&gt;Other Income Comprising interest Income, &lt;br&gt;&lt;/div&gt;&lt;div&gt;Dividend Income, Gain/ Loss on Sale of &lt;br&gt;&lt;/div&gt;&lt;div&gt;Investments etc. &lt;/div&gt;" style="rounded=1;whiteSpace=wrap;html=1;" parent="1" vertex="1">
          <mxGeometry x="840.5" y="640" width="280" height="60" as="geometry" />
        </mxCell>
        <mxCell id="JVfyQsDlpFgOe32HRUAi-31" value="Purchases" style="rounded=1;whiteSpace=wrap;html=1;" parent="1" vertex="1">
          <mxGeometry x="1160.5" y="640" width="120" height="40" as="geometry" />
        </mxCell>
        <mxCell id="JVfyQsDlpFgOe32HRUAi-32" value="Employee Benefit Expense " style="rounded=1;whiteSpace=wrap;html=1;" parent="1" vertex="1">
          <mxGeometry x="1320.5" y="640" width="120" height="40" as="geometry" />
        </mxCell>
        <mxCell id="JVfyQsDlpFgOe32HRUAi-33" value="Depreciation and Amortisation" style="rounded=1;whiteSpace=wrap;html=1;" parent="1" vertex="1">
          <mxGeometry x="1480.5" y="640" width="120" height="40" as="geometry" />
        </mxCell>
        <mxCell id="JVfyQsDlpFgOe32HRUAi-34" value="Other Expenses like Power and Fuel, Rent, Repair to Building, Plant and Machinery, Insurance, Travelling, Legal and Professional, Miscellaneous Expenses" style="rounded=1;whiteSpace=wrap;html=1;" parent="1" vertex="1">
          <mxGeometry x="1640.5" y="640" width="280" height="80" as="geometry" />
        </mxCell>
        <mxCell id="66pDrFZKpN6Ti9aJz2PV-1" value="Vouching &#xa;vs verification" style="swimlane;startSize=40;" parent="1" vertex="1" collapsed="1">
          <mxGeometry x="-530" y="440" width="120" height="40" as="geometry">
            <mxRectangle x="360" y="560" width="360" height="320" as="alternateBounds" />
          </mxGeometry>
        </mxCell>
        <mxCell id="66pDrFZKpN6Ti9aJz2PV-3" value="" style="shape=table;startSize=0;container=1;collapsible=0;childLayout=tableLayout;" parent="66pDrFZKpN6Ti9aJz2PV-1" vertex="1">
          <mxGeometry y="40" width="360" height="310" as="geometry" />
        </mxCell>
        <mxCell id="66pDrFZKpN6Ti9aJz2PV-4" value="" style="shape=partialRectangle;collapsible=0;dropTarget=0;pointerEvents=0;fillColor=none;top=0;left=0;bottom=0;right=0;points=[[0,0.5],[1,0.5]];portConstraint=eastwest;" parent="66pDrFZKpN6Ti9aJz2PV-3" vertex="1">
          <mxGeometry width="360" height="40" as="geometry" />
        </mxCell>
        <mxCell id="66pDrFZKpN6Ti9aJz2PV-5" value="&lt;u&gt;&lt;b&gt;Vouching&lt;/b&gt;&lt;/u&gt;" style="shape=partialRectangle;html=1;whiteSpace=wrap;connectable=0;overflow=hidden;fillColor=none;top=0;left=0;bottom=0;right=0;pointerEvents=1;" parent="66pDrFZKpN6Ti9aJz2PV-4" vertex="1">
          <mxGeometry width="180" height="40" as="geometry" />
        </mxCell>
        <mxCell id="66pDrFZKpN6Ti9aJz2PV-6" value="&lt;u&gt;&lt;b&gt;Verification&lt;/b&gt;&lt;/u&gt;" style="shape=partialRectangle;html=1;whiteSpace=wrap;connectable=0;overflow=hidden;fillColor=none;top=0;left=0;bottom=0;right=0;pointerEvents=1;" parent="66pDrFZKpN6Ti9aJz2PV-4" vertex="1">
          <mxGeometry x="180" width="180" height="40" as="geometry" />
        </mxCell>
        <mxCell id="66pDrFZKpN6Ti9aJz2PV-7" value="" style="shape=partialRectangle;collapsible=0;dropTarget=0;pointerEvents=0;fillColor=none;top=0;left=0;bottom=0;right=0;points=[[0,0.5],[1,0.5]];portConstraint=eastwest;" parent="66pDrFZKpN6Ti9aJz2PV-3" vertex="1">
          <mxGeometry y="40" width="360" height="40" as="geometry" />
        </mxCell>
        <mxCell id="66pDrFZKpN6Ti9aJz2PV-8" value="Vouching is an examination of transactions" style="shape=partialRectangle;html=1;whiteSpace=wrap;connectable=0;overflow=hidden;fillColor=none;top=0;left=0;bottom=0;right=0;pointerEvents=1;" parent="66pDrFZKpN6Ti9aJz2PV-7" vertex="1">
          <mxGeometry width="180" height="40" as="geometry" />
        </mxCell>
        <mxCell id="66pDrFZKpN6Ti9aJz2PV-9" value="Verification is examination of balances" style="shape=partialRectangle;html=1;whiteSpace=wrap;connectable=0;overflow=hidden;fillColor=none;top=0;left=0;bottom=0;right=0;pointerEvents=1;" parent="66pDrFZKpN6Ti9aJz2PV-7" vertex="1">
          <mxGeometry x="180" width="180" height="40" as="geometry" />
        </mxCell>
        <mxCell id="66pDrFZKpN6Ti9aJz2PV-10" value="" style="shape=partialRectangle;collapsible=0;dropTarget=0;pointerEvents=0;fillColor=none;top=0;left=0;bottom=0;right=0;points=[[0,0.5],[1,0.5]];portConstraint=eastwest;" parent="66pDrFZKpN6Ti9aJz2PV-3" vertex="1">
          <mxGeometry y="80" width="360" height="40" as="geometry" />
        </mxCell>
        <mxCell id="66pDrFZKpN6Ti9aJz2PV-11" value="it means checking p/l items i.e income and expenses" style="shape=partialRectangle;html=1;whiteSpace=wrap;connectable=0;overflow=hidden;fillColor=none;top=0;left=0;bottom=0;right=0;pointerEvents=1;" parent="66pDrFZKpN6Ti9aJz2PV-10" vertex="1">
          <mxGeometry width="180" height="40" as="geometry" />
        </mxCell>
        <mxCell id="66pDrFZKpN6Ti9aJz2PV-12" value="means checking b/s items i.e assets and liablities" style="shape=partialRectangle;html=1;whiteSpace=wrap;connectable=0;overflow=hidden;fillColor=none;top=0;left=0;bottom=0;right=0;pointerEvents=1;" parent="66pDrFZKpN6Ti9aJz2PV-10" vertex="1">
          <mxGeometry x="180" width="180" height="40" as="geometry" />
        </mxCell>
        <mxCell id="66pDrFZKpN6Ti9aJz2PV-13" value="" style="shape=partialRectangle;collapsible=0;dropTarget=0;pointerEvents=0;fillColor=none;top=0;left=0;bottom=0;right=0;points=[[0,0.5],[1,0.5]];portConstraint=eastwest;" parent="66pDrFZKpN6Ti9aJz2PV-3" vertex="1">
          <mxGeometry y="120" width="360" height="40" as="geometry" />
        </mxCell>
        <mxCell id="66pDrFZKpN6Ti9aJz2PV-14" value="conducted normally throughout the year" style="shape=partialRectangle;html=1;whiteSpace=wrap;connectable=0;overflow=hidden;fillColor=none;top=0;left=0;bottom=0;right=0;pointerEvents=1;" parent="66pDrFZKpN6Ti9aJz2PV-13" vertex="1">
          <mxGeometry width="180" height="40" as="geometry" />
        </mxCell>
        <mxCell id="66pDrFZKpN6Ti9aJz2PV-15" value="conducted at the end of the year" style="shape=partialRectangle;html=1;whiteSpace=wrap;connectable=0;overflow=hidden;fillColor=none;top=0;left=0;bottom=0;right=0;pointerEvents=1;" parent="66pDrFZKpN6Ti9aJz2PV-13" vertex="1">
          <mxGeometry x="180" width="180" height="40" as="geometry" />
        </mxCell>
        <mxCell id="66pDrFZKpN6Ti9aJz2PV-16" value="" style="shape=partialRectangle;collapsible=0;dropTarget=0;pointerEvents=0;fillColor=none;top=0;left=0;bottom=0;right=0;points=[[0,0.5],[1,0.5]];portConstraint=eastwest;" parent="66pDrFZKpN6Ti9aJz2PV-3" vertex="1">
          <mxGeometry y="160" width="360" height="70" as="geometry" />
        </mxCell>
        <mxCell id="66pDrFZKpN6Ti9aJz2PV-17" value="checking documentary evidence is enough" style="shape=partialRectangle;html=1;whiteSpace=wrap;connectable=0;overflow=hidden;fillColor=none;top=0;left=0;bottom=0;right=0;pointerEvents=1;" parent="66pDrFZKpN6Ti9aJz2PV-16" vertex="1">
          <mxGeometry width="180" height="70" as="geometry" />
        </mxCell>
        <mxCell id="66pDrFZKpN6Ti9aJz2PV-18" value="checking documentary evidence is not enough, physical verification is also required whenever practical / possible" style="shape=partialRectangle;html=1;whiteSpace=wrap;connectable=0;overflow=hidden;fillColor=none;top=0;left=0;bottom=0;right=0;pointerEvents=1;" parent="66pDrFZKpN6Ti9aJz2PV-16" vertex="1">
          <mxGeometry x="180" width="180" height="70" as="geometry" />
        </mxCell>
        <mxCell id="66pDrFZKpN6Ti9aJz2PV-19" value="" style="shape=partialRectangle;collapsible=0;dropTarget=0;pointerEvents=0;fillColor=none;top=0;left=0;bottom=0;right=0;points=[[0,0.5],[1,0.5]];portConstraint=eastwest;" parent="66pDrFZKpN6Ti9aJz2PV-3" vertex="1">
          <mxGeometry y="230" width="360" height="40" as="geometry" />
        </mxCell>
        <mxCell id="66pDrFZKpN6Ti9aJz2PV-20" value="normally conducted by junior staff" style="shape=partialRectangle;html=1;whiteSpace=wrap;connectable=0;overflow=hidden;fillColor=none;top=0;left=0;bottom=0;right=0;pointerEvents=1;" parent="66pDrFZKpN6Ti9aJz2PV-19" vertex="1">
          <mxGeometry width="180" height="40" as="geometry" />
        </mxCell>
        <mxCell id="66pDrFZKpN6Ti9aJz2PV-21" value="normally conducted by senior staff / auditor himself" style="shape=partialRectangle;html=1;whiteSpace=wrap;connectable=0;overflow=hidden;fillColor=none;top=0;left=0;bottom=0;right=0;pointerEvents=1;" parent="66pDrFZKpN6Ti9aJz2PV-19" vertex="1">
          <mxGeometry x="180" width="180" height="40" as="geometry" />
        </mxCell>
        <mxCell id="66pDrFZKpN6Ti9aJz2PV-22" value="" style="shape=partialRectangle;collapsible=0;dropTarget=0;pointerEvents=0;fillColor=none;top=0;left=0;bottom=0;right=0;points=[[0,0.5],[1,0.5]];portConstraint=eastwest;" parent="66pDrFZKpN6Ti9aJz2PV-3" vertex="1">
          <mxGeometry y="270" width="360" height="40" as="geometry" />
        </mxCell>
        <mxCell id="66pDrFZKpN6Ti9aJz2PV-23" value="does not include valuation" style="shape=partialRectangle;html=1;whiteSpace=wrap;connectable=0;overflow=hidden;fillColor=none;top=0;left=0;bottom=0;right=0;pointerEvents=1;" parent="66pDrFZKpN6Ti9aJz2PV-22" vertex="1">
          <mxGeometry width="180" height="40" as="geometry" />
        </mxCell>
        <mxCell id="66pDrFZKpN6Ti9aJz2PV-24" value="includes valuation" style="shape=partialRectangle;html=1;whiteSpace=wrap;connectable=0;overflow=hidden;fillColor=none;top=0;left=0;bottom=0;right=0;pointerEvents=1;" parent="66pDrFZKpN6Ti9aJz2PV-22" vertex="1">
          <mxGeometry x="180" width="180" height="40" as="geometry" />
        </mxCell>
        <mxCell id="66pDrFZKpN6Ti9aJz2PV-25" value="P/L items" style="rounded=1;whiteSpace=wrap;html=1;" parent="1" vertex="1">
          <mxGeometry x="-840" y="520" width="120" height="40" as="geometry" />
        </mxCell>
        <mxCell id="66pDrFZKpN6Ti9aJz2PV-26" value="B/S items" style="rounded=1;whiteSpace=wrap;html=1;" parent="1" vertex="1">
          <mxGeometry x="-680" y="520" width="120" height="40" as="geometry" />
        </mxCell>
        <mxCell id="66pDrFZKpN6Ti9aJz2PV-27" value="How to Vouch" style="swimlane;startSize=40;" parent="1" vertex="1" collapsed="1">
          <mxGeometry x="-600" y="370" width="120" height="40" as="geometry">
            <mxRectangle x="-600" y="370" width="520" height="673" as="alternateBounds" />
          </mxGeometry>
        </mxCell>
        <mxCell id="66pDrFZKpN6Ti9aJz2PV-42" value="" style="shape=image;verticalLabelPosition=bottom;labelBackgroundColor=#ffffff;verticalAlign=top;aspect=fixed;imageAspect=0;image=https://imgur.com/yVzNL9A.png;" parent="66pDrFZKpN6Ti9aJz2PV-27" vertex="1">
          <mxGeometry y="40" width="520" height="357" as="geometry" />
        </mxCell>
        <mxCell id="66pDrFZKpN6Ti9aJz2PV-43" value="" style="shape=image;verticalLabelPosition=bottom;labelBackgroundColor=#ffffff;verticalAlign=top;aspect=fixed;imageAspect=0;image=https://imgur.com/6qHPYXq.png;" parent="66pDrFZKpN6Ti9aJz2PV-27" vertex="1">
          <mxGeometry y="397" width="520" height="276" as="geometry" />
        </mxCell>
        <mxCell id="66pDrFZKpN6Ti9aJz2PV-32" value="How to Verify" style="swimlane;startSize=40;" parent="1" vertex="1" collapsed="1">
          <mxGeometry x="-460" y="370" width="120" height="40" as="geometry">
            <mxRectangle x="-450" y="370" width="517.5" height="670" as="alternateBounds" />
          </mxGeometry>
        </mxCell>
        <mxCell id="66pDrFZKpN6Ti9aJz2PV-40" value="" style="shape=image;verticalLabelPosition=bottom;labelBackgroundColor=#ffffff;verticalAlign=top;aspect=fixed;imageAspect=0;image=https://imgur.com/RVhFhAz.png;" parent="66pDrFZKpN6Ti9aJz2PV-32" vertex="1">
          <mxGeometry x="-5" y="40" width="520" height="376" as="geometry" />
        </mxCell>
        <mxCell id="66pDrFZKpN6Ti9aJz2PV-41" value="" style="shape=image;verticalLabelPosition=bottom;labelBackgroundColor=#ffffff;verticalAlign=top;aspect=fixed;imageAspect=0;image=https://imgur.com/igpQDB1.png;" parent="66pDrFZKpN6Ti9aJz2PV-32" vertex="1">
          <mxGeometry x="-2.5" y="403" width="520" height="267" as="geometry" />
        </mxCell>
        <mxCell id="HmFCgczZDOIW98-LxWr3-1" value="1.1 &lt;u&gt;&lt;b&gt;Existence&lt;/b&gt;&lt;/u&gt;&lt;br&gt;&amp;nbsp;It is the sum stated in the memorandum as the capital of the company with which it is to be registered being the maximum amount which it is&lt;br&gt;authorized to raise by issuing shares, and upon which it pays the stamp&lt;br&gt;&lt;div&gt;duty&lt;/div&gt;&lt;div&gt;&lt;br&gt;&lt;/div&gt;1.2 &lt;u&gt;&lt;b&gt;Valuation&lt;/b&gt;&lt;/u&gt;&lt;br&gt;&amp;nbsp;1. Tally the period- end share capital balance- authorised, issued and paid&lt;br&gt;&lt;div&gt;up, to the previous year audited financial statements&lt;/div&gt;&lt;div&gt;&lt;br&gt;&lt;/div&gt;2. In case there in no change during the year, obtain a written confirmation/&lt;br&gt;representation from the Company Secretary that there were no changes to&lt;br&gt;&lt;div&gt;entity’s capital structure during the year.&lt;/div&gt;&lt;div&gt;&lt;br&gt;&lt;/div&gt;&amp;nbsp;3. In case there is any change, obtain the certified copies of relevant&lt;br&gt;resolutions passed at the meetings of board of directors, shareholders&lt;br&gt;authorizing the increase/ decrease in authorized and paid up share capital&lt;br&gt;&amp;nbsp;Verify whether the paid up capital as at the period- end is within the limits&lt;br&gt;&lt;div&gt;of authorized capital&lt;/div&gt;&lt;div&gt;&lt;br&gt;&lt;/div&gt;1.3 &lt;u&gt;&lt;b&gt;Completeness&lt;/b&gt;&lt;/u&gt;&lt;br&gt;Equity bal that should have been recorded have been shown in the FS&lt;br&gt;&lt;div&gt;&lt;br&gt;&lt;/div&gt;1.4 &lt;u&gt;&lt;b&gt;Presentation and Disclosure&lt;/b&gt;&lt;/u&gt;&lt;br&gt;&amp;nbsp;as per AS/IND AS as applicable" style="rounded=0;whiteSpace=wrap;html=1;" parent="1" vertex="1" visible="0">
          <mxGeometry x="-1220" y="700" width="400" height="380" as="geometry" />
        </mxCell>
        <mxCell id="HmFCgczZDOIW98-LxWr3-3" value="2.1 &lt;u&gt;&lt;b&gt;Existence/Valuation/Completeness&lt;/b&gt;&lt;/u&gt;&lt;br&gt;&amp;nbsp;Tally the opening balance of reserves and surplus to the PY&lt;br&gt;&lt;div&gt;audited FS.&lt;/div&gt;&lt;div&gt;&lt;br&gt;&lt;/div&gt;&amp;nbsp;For addition/ utilisation in current year, in case of:&lt;br&gt;a. Profit and Loss balance- trace the movement as disclosed in Statement&lt;br&gt;of changes in Equity to Surplus/ Deficit as per Income Statement for the&lt;br&gt;year under audit&lt;br&gt;b. For adjustment related to dividend payment and the tax related thereto&lt;br&gt;i.e. dividend distribution tax, verify the resolution passed by the board of&lt;br&gt;directors regarding declaration of dividend&lt;br&gt;&lt;div&gt;d. Utilisation of share premium as per the provisions&lt;br&gt;&lt;/div&gt;&lt;div&gt;&lt;br&gt;&lt;/div&gt;2.2 &lt;u&gt;&lt;b&gt;Presentation and Disclosure&lt;/b&gt;&lt;/u&gt;&lt;br&gt;&amp;nbsp;Ias per AS/IND AS as applicable" style="rounded=0;whiteSpace=wrap;html=1;" parent="1" vertex="1" visible="0">
          <mxGeometry x="-1055" y="700" width="400" height="220" as="geometry" />
        </mxCell>
        <mxCell id="HmFCgczZDOIW98-LxWr3-5" value="&lt;div&gt;3.1 &lt;u&gt;&lt;b&gt;Existence&lt;/b&gt;&lt;/u&gt;&lt;/div&gt;&lt;div&gt;&lt;u&gt;&lt;b&gt;&lt;br&gt;&lt;/b&gt;&lt;/u&gt;&lt;/div&gt;&amp;nbsp;1. Review board minutes for approval of new lending agreements. During&lt;br&gt;&lt;div&gt;review, make sure that any new loan agreements are authorized. &lt;br&gt;&lt;/div&gt;&lt;div&gt;&lt;br&gt;&lt;/div&gt;&lt;div&gt;2. Ensure that significant debt commitments should be approved by the board of directors.&lt;/div&gt;&lt;div&gt;&lt;br&gt;&lt;/div&gt;&lt;div&gt;&amp;nbsp;3. Verify that borrowing limits imposed by agreements are not exceeded&lt;/div&gt;&lt;div&gt;&lt;br&gt;&lt;/div&gt;&amp;nbsp;4. Agree overdrafts and loans recorded to bank confirmation / confirmation to&lt;br&gt;&lt;div&gt;lenders&lt;/div&gt;&lt;div&gt;&lt;br&gt;&lt;/div&gt;5. Agree details of leases and hire purchase creditors recorded to underlying&lt;br&gt;agreement&lt;br&gt;&lt;div&gt;&lt;br&gt;&lt;/div&gt;&lt;div&gt;&lt;br&gt;&lt;/div&gt;&lt;div&gt;&lt;br&gt;&lt;/div&gt;&lt;div&gt;3.2 &lt;u&gt;&lt;b&gt;Valuation&lt;/b&gt;&lt;/u&gt;&lt;/div&gt;&lt;div&gt;&lt;u&gt;&lt;b&gt;&lt;br&gt;&lt;/b&gt;&lt;/u&gt;&lt;/div&gt;1.&amp;nbsp; Determine that the accounting policies and methods of recording debt are&lt;br&gt;&lt;div&gt;appropriate and applied consistently.&lt;/div&gt;&lt;div&gt;&lt;br&gt;&lt;/div&gt;2. Recalculate the interest accrual, and discount or premium on redemption&lt;br&gt;&amp;nbsp;&lt;br&gt;&lt;div&gt;&amp;nbsp;3. Check computation of the amortization of premium or discount.&lt;/div&gt;&lt;div&gt;&lt;br&gt;&lt;/div&gt;&lt;div&gt;&lt;br&gt;&lt;/div&gt;&lt;div&gt;&lt;br&gt;&lt;/div&gt;&lt;div&gt;3.3 &lt;u&gt;&lt;b&gt;Completeness&lt;/b&gt;&lt;/u&gt;&lt;/div&gt;&lt;div&gt;&lt;u&gt;&lt;b&gt;&lt;br&gt;&lt;/b&gt;&lt;/u&gt;&lt;/div&gt;&lt;div&gt;&amp;nbsp;Obtain a schedule of short term and long term borrowing showing beginning&lt;/div&gt;&lt;div&gt; and ending balances and borrowings and repayments during the year,&lt;/div&gt;&lt;div&gt; and perform the following:&lt;/div&gt;a. examination of minutes of the board, and other documents.&lt;br&gt;b. trace the ending balances to the general ledger&lt;br&gt;&lt;div&gt;&lt;br&gt;&lt;/div&gt;&lt;div&gt;&lt;br&gt;&lt;/div&gt;&lt;div&gt;&lt;br&gt;&lt;/div&gt;3.4 &lt;u&gt;&lt;b&gt;Presentation and Disclosure&lt;/b&gt;&lt;/u&gt;&lt;br&gt;&lt;div&gt;&lt;br&gt;&lt;/div&gt;&lt;div&gt;1. as per AS/IND AS as applicable&lt;/div&gt;&lt;div&gt;&lt;br&gt;&lt;/div&gt;&lt;div&gt;&amp;nbsp;2. Examine the due dates on loans for proper classification between long term and current.&lt;/div&gt;&lt;div&gt;&lt;br&gt;&lt;/div&gt;3. Verify whether liabilities to bank towards bills discounted, bills negotiated,&lt;br&gt;cheques discounted, etc. are correctly reflected and disclosed in the&lt;br&gt;&lt;div&gt;accounts &lt;br&gt;&lt;/div&gt;&lt;div&gt;&lt;br&gt;&lt;/div&gt;&lt;div&gt;&lt;br&gt;&lt;/div&gt;&lt;div&gt;&lt;br&gt;&lt;/div&gt;&lt;div&gt;3.5 &lt;u&gt;&lt;b&gt;Other Aspects&lt;/b&gt;&lt;/u&gt;:&lt;/div&gt;&lt;div&gt;&lt;br&gt;&lt;/div&gt;&lt;div&gt;&amp;nbsp;1. Verify that the company has not contravened the restrictions laid down&lt;/div&gt;&lt;div&gt;&lt;br&gt;&lt;/div&gt;&lt;div&gt;2. Check compliance&#39;s of Income tax, and cos act done properly&lt;br&gt;&lt;/div&gt;" style="rounded=0;whiteSpace=wrap;html=1;" parent="1" vertex="1" visible="0">
          <mxGeometry x="-927.5" y="700" width="465" height="860" as="geometry" />
        </mxCell>
        <mxCell id="HmFCgczZDOIW98-LxWr3-7" value="4.1 &lt;u&gt;&lt;b&gt;Existence&lt;/b&gt;&lt;/u&gt;&lt;br&gt;&amp;nbsp;To ensure that trace receivables ledger reconciles to general ledger. Ask&lt;br&gt;for a period-end accounts receivable aging report and trace the grand total&lt;br&gt;to the amount in the accounts receivable account in the general ledger&lt;br&gt;&amp;nbsp;Calculate the receivable report total. Add up the invoices on the accounts&lt;br&gt;receivable aging report to verify that the total traced to the general ledger is&lt;br&gt;correct.&lt;br&gt;&amp;nbsp;Investigate reconciling items. If there are journal entries in the accounts&lt;br&gt;receivable account in the general ledger, review the justification for larger&lt;br&gt;amounts. This implies that these journal entries should be fully&lt;br&gt;documented.&lt;br&gt;&amp;nbsp;See whether realization is recorded invoice wise or not. If not, check that&lt;br&gt;money received from debtors is adjusted chronologically invoice wise and&lt;br&gt;on FIFO basis i.e. previous bill is adjusted first. If realization is made on&lt;br&gt;account, verify if the Company has obtained confirmations from debtors.&lt;br&gt;&amp;nbsp;A significant and important audit activity is to contact customers directly&lt;br&gt;and ask them to confirm the amounts of unpaid accounts receivable as of&lt;br&gt;the end of the reporting period under audit. This should necessarily be&lt;br&gt;done for all significant account balances as at the period- end while certain&lt;br&gt;random customers having smaller outstanding invoices should also be&lt;br&gt;selected.&lt;br&gt;&amp;nbsp;The trade receivables may be requested to confirm the balances either&lt;br&gt;(a) as at the date of the balance sheet, or&lt;br&gt;(b) as at any other selected date which is reasonably close to the date of&lt;br&gt;the balance sheet. The date should be decided by the auditor in&lt;br&gt;consultation with the Company.&lt;br&gt;&amp;nbsp;If there are any related party receivables, review them for collectability, as&lt;br&gt;well as whether they were properly authorized and the value of such&lt;br&gt;&lt;div&gt;transactions were reasonable and at arm’s length.&lt;/div&gt;&lt;div&gt;&lt;br&gt;&lt;/div&gt;&lt;div&gt;&lt;br&gt;&lt;/div&gt;&lt;div&gt;4.2 &lt;u&gt;&lt;b&gt;Valuation&lt;/b&gt;&lt;/u&gt;&lt;br&gt;&amp;nbsp;Assess the allowance for doubtful accounts. Review the process followed&lt;br&gt;by the Company to derive an allowance for doubtful accounts. This will&lt;br&gt;include a consistency comparison with the method used in the last year,&lt;br&gt;and a determination of whether the method is appropriate for the&lt;br&gt;underlying business environment.&lt;br&gt;&amp;nbsp;Obtain the ageing report of accounts receivable (both Dr/Cr balance), split&lt;br&gt;between not currently due, 30 days old, 30-60 days old, 60- 180 days old,&lt;br&gt;180- 365 days old and more than 365 days old (refer screenshot below).&lt;br&gt;Also, obtain the list of debtors under litigation and compare with previous&lt;br&gt;year.&lt;br&gt;&amp;nbsp;Assess bad debt write-offs. Prepare schedule of movements on Bad Debts&lt;br&gt;– Provision Accounts and Debts written off and compare the proportion of&lt;br&gt;bad debt expense to sales for the current year in comparison to prior&lt;br&gt;years, to see if the current expense appears reasonable.&lt;br&gt;&amp;nbsp;Check that write-offs or other reductions in the receivable balances have&lt;br&gt;been approved by an appropriate and authorised member of senior&lt;br&gt;management, for example the fi nancial controller or finance director.&lt;/div&gt;&lt;div&gt;&lt;br&gt;&lt;/div&gt;&lt;div&gt;&lt;br&gt;&lt;/div&gt;&lt;div&gt;&lt;br&gt;&lt;/div&gt;&lt;div&gt;4.3 &lt;u&gt;&lt;b&gt;Completeness&lt;/b&gt;&lt;/u&gt;&lt;/div&gt;&lt;div&gt;&lt;br&gt;&amp;nbsp;1. The auditor needs to satisfy himself of correct and proper cut-offs. Without&lt;br&gt;a correct cutoff, sales could be understated or overstated, &lt;br&gt;&lt;/div&gt;&lt;div&gt;hence, the need to perform the following cutoff tests:&lt;br&gt;a. the goods should have been dispatched and not lying with the&lt;br&gt;Company and included in closing stock;&lt;br&gt;b. All good dispatched prior to the period/ year-end have been invoiced&lt;br&gt;and included in debtors;&lt;br&gt;c. No goods dispatched after the year- end have been invoiced and&lt;br&gt;included in debtors for the period under audit&lt;br&gt;&amp;nbsp;&lt;/div&gt;&lt;div&gt;2. Study the system of giving discounts and check the following:&lt;br&gt;a. Whether the same is being given as per the Company policy/ general&lt;br&gt;industry trends;&lt;br&gt;b. Whether cash discount is given on the basis of date of realization of&lt;br&gt;cheque or on the basis of date of receipt of cheque. verify that the cheque has been&lt;br&gt;realized within a reasonable time.&lt;/div&gt;&lt;div&gt;&lt;br&gt;&lt;/div&gt;&lt;div&gt;&lt;br&gt;&lt;/div&gt;&lt;div&gt;&lt;br&gt;&lt;/div&gt;&lt;div&gt;4.4 &lt;u&gt;&lt;b&gt;Presentation and Disclosure&lt;/b&gt;&lt;/u&gt;&lt;/div&gt;&lt;div&gt;&lt;br&gt;&lt;/div&gt;&lt;div&gt;as per AS/IND AS as applicable&lt;/div&gt;&lt;div&gt;&lt;br&gt;&lt;/div&gt;&lt;div&gt;&amp;nbsp;Verify that the split between more than 6 months and less than 6 months&lt;br&gt;has been done from the due date instead of sales invoice date&lt;br&gt;&lt;/div&gt;" style="rounded=0;whiteSpace=wrap;html=1;" parent="1" vertex="1" visible="0">
          <mxGeometry x="-767.5" y="700" width="465" height="1170" as="geometry" />
        </mxCell>
        <mxCell id="UfjtboCrBmcmnvGXadqM-2" value="&lt;div&gt;&lt;u&gt;&lt;b&gt;Existence/Completeness/Valuation&lt;/b&gt;&lt;/u&gt;: &lt;br&gt;&lt;/div&gt;&lt;div&gt;&lt;br&gt;&lt;/div&gt;&lt;div&gt;1. the cash should be checked not only on the last day of the&lt;/div&gt;&lt;div&gt;year, but also checked again sometime after the close of the year without&lt;br&gt;giving notice of the auditor’s visit either to the client or to his staff&lt;/div&gt;&lt;div&gt;&lt;br&gt;&lt;/div&gt;&lt;div&gt;2. If there are more than one cash balances, e.g., when there is a cashier, a&lt;br&gt;petty cashier, a branch cashier and, in addition, there are imprest balances&lt;br&gt;with employees, all of them should be checked simultaneously, as far as&lt;br&gt;practicable so that the shortage in one balance is not made good by&lt;br&gt;transfer of amount from the other.&lt;/div&gt;&lt;div&gt;&lt;br&gt;&lt;/div&gt;&lt;div&gt;&amp;nbsp;3. It is desirable for the cashier to be present while cash is being counted and&lt;br&gt;he should be made to sign the statement prepared containing details of the&lt;br&gt;cash balance counted.&lt;/div&gt;&lt;div&gt;&lt;br&gt;&lt;/div&gt;&lt;div&gt;4. If unable to check the cash balance on the date of the&lt;br&gt;Balance Sheet, he should arrange with his client for all the cash balance to&lt;br&gt;be banked and where this cannot conveniently be done on the evening of&lt;br&gt;the close of the financial year, it should be deposited the following morning.&lt;/div&gt;&lt;div&gt;&lt;br&gt;&lt;/div&gt;&lt;div&gt;6. If there is any rough Cash Book or details of daily balance are separately&lt;br&gt;kept, the auditor should test entries from the rough Cash Book with those&lt;br&gt;in the Cash Book to prove that entries in the Cash Book are correct.&lt;/div&gt;&lt;div&gt;&lt;br&gt;&lt;/div&gt;&lt;div&gt;7. The auditor should also perform a cash sensitivity analysis by compiling a&lt;br&gt;summary of total cash receipts and payments each month and analyse the&lt;br&gt;trends to see if there have been variations in any specific month and&lt;br&gt;request explanations from the management&lt;/div&gt;&lt;div&gt;&lt;br&gt;&lt;/div&gt;&lt;div&gt;&lt;u&gt;&lt;b&gt;Presentation and Disclosure&lt;/b&gt;&lt;/u&gt;&lt;br&gt;as per AS/IND AS as applicable&lt;br&gt;&lt;/div&gt;" style="rounded=0;whiteSpace=wrap;html=1;" vertex="1" visible="0" parent="1">
          <mxGeometry x="-593.75" y="700" width="437.5" height="480" as="geometry" />
        </mxCell>
        <mxCell id="UfjtboCrBmcmnvGXadqM-4" value="&lt;u&gt;&lt;b&gt;Existence&lt;/b&gt;&lt;/u&gt;&lt;br&gt;&lt;div&gt;&amp;nbsp;1. Review client’s plan for performing inventory count. &lt;br&gt;&lt;/div&gt;&lt;div&gt;&lt;br&gt;&lt;/div&gt;&lt;div&gt;&amp;nbsp;2. Ensure that consigned goods have been segregated&lt;/div&gt;&lt;div&gt;&lt;br&gt;&lt;/div&gt;&amp;nbsp;3. Evidence of appropriate supervision for those performing count should be&lt;br&gt;&lt;div&gt;examined.&lt;/div&gt;&lt;div&gt;&lt;br&gt;&lt;/div&gt;&amp;nbsp;Observe inventory being counted and personally perform test counts to&lt;br&gt;verify counts. Test counts by auditor should include:&lt;br&gt;&lt;div&gt;{FURTHER CONSIDER SA 501}&lt;/div&gt;&lt;div&gt;&lt;br&gt;&lt;/div&gt;&lt;div&gt;&lt;br&gt;&lt;/div&gt;&lt;div&gt;&lt;br&gt;&lt;/div&gt;&lt;u&gt;&lt;b&gt;Valuation&lt;/b&gt;&lt;/u&gt;&lt;br&gt;&lt;br&gt;&lt;div&gt;1. Ascertain what elements of cost are included e.g. carriage in, duties etc&lt;br&gt;&amp;nbsp;If standard costs are used, en-quire into basis of standards, how these are&lt;br&gt;compared with actual costs and how variances are analyzed and&lt;br&gt;accounted for/ treated in accounting records.&lt;/div&gt;&lt;div&gt;&lt;br&gt;&lt;/div&gt;&lt;div&gt;2. Follow up valuation of all damaged or obsolete inventories&lt;br&gt;&lt;/div&gt;&lt;div&gt;&lt;br&gt;&lt;/div&gt;&lt;div&gt;&amp;nbsp;3. Ascertain how the various stages of production/ value add are measured&lt;br&gt;and in case estimates are made, understand the basis for such estimates.&lt;/div&gt;&lt;div&gt;&lt;br&gt;&lt;/div&gt;&lt;div&gt;&amp;nbsp;4. Ascertain what elements of cost are included. If overheads are included,&lt;br&gt;ascertain the basis on which they are included and compare such basis&lt;br&gt;with the available costing and financial data/ information maintained by the&lt;br&gt;entity.&lt;/div&gt;&lt;div&gt;&lt;br&gt;&lt;/div&gt;&lt;div&gt;5. Ensure that material costs exclude any abnormal wastage factors&lt;/div&gt;&lt;div&gt;&lt;br&gt;&lt;/div&gt;&lt;div&gt;&lt;br&gt;&lt;/div&gt;&lt;div&gt;&lt;br&gt;&lt;/div&gt;&lt;div&gt;&lt;u&gt;&lt;b&gt;Rights and Obligation&lt;/b&gt;&lt;/u&gt;&lt;/div&gt;&lt;div&gt;&lt;br&gt;1. Evaluate the consigned goods.&amp;nbsp;&lt;/div&gt;&lt;div&gt;&lt;br&gt;2. Determine existence of collateral agreements&lt;br&gt;&lt;/div&gt;&lt;div&gt;&lt;br&gt;&lt;/div&gt;&lt;div&gt;3. Obtaining declaration from the third party confirming that the&lt;br&gt;items of inventory belong to the entity and are being held by such third&lt;br&gt;party on behalf of the entity&lt;br&gt;&lt;/div&gt;&lt;div&gt;&lt;br&gt;&lt;/div&gt;&lt;div&gt;&lt;br&gt;&lt;/div&gt;&lt;div&gt;&lt;br&gt;&lt;/div&gt;&lt;div&gt;&lt;u&gt;&lt;b&gt;Completeness&lt;/b&gt;&lt;/u&gt;&lt;/div&gt;&lt;div&gt;&lt;u&gt;&lt;b&gt;&lt;/b&gt;&lt;/u&gt;&lt;br&gt;1. Perform purchase and sales cut-off tests. &lt;br&gt;&lt;/div&gt;&lt;div&gt;&lt;br&gt;&lt;/div&gt;&lt;div&gt;2. Trace shipping documents to accounting records immediately&lt;/div&gt;&lt;div&gt; before and after year-end.&lt;/div&gt;&lt;div&gt;&lt;br&gt;&lt;/div&gt;&lt;div&gt;&amp;nbsp;3. Reconcile physical inventory amounts with perpetual records.&lt;/div&gt;&lt;div&gt;&lt;br&gt;&lt;/div&gt;&lt;div&gt;&lt;br&gt;&lt;/div&gt;&lt;div&gt;&lt;br&gt;&lt;/div&gt;&lt;div&gt;&lt;u&gt;&lt;b&gt;Presentation and Disclosure&lt;/b&gt;&lt;/u&gt;&lt;/div&gt;&lt;div&gt;&lt;u&gt;&lt;b&gt;&lt;/b&gt;&lt;/u&gt;&lt;br&gt;as per AS/IND AS as applicable&lt;br&gt;&lt;/div&gt;" style="rounded=0;whiteSpace=wrap;html=1;" vertex="1" visible="0" parent="1">
          <mxGeometry x="-433.75" y="700" width="437.5" height="890" as="geometry" />
        </mxCell>
        <mxCell id="UfjtboCrBmcmnvGXadqM-6" value="&lt;div&gt;&lt;u&gt;&lt;b&gt;Existence&lt;/b&gt;&lt;/u&gt;&lt;/div&gt;&lt;div&gt;&lt;u&gt;&lt;b&gt;&lt;br&gt;&lt;/b&gt;&lt;/u&gt;&lt;/div&gt;&lt;div&gt;1. Review client’s plan for performing physical verification of PPE &lt;/div&gt;&lt;br&gt;&lt;div&gt;2. Assess if all items of PPE are properly tagged and carry identification&lt;br&gt;marks/ numbers and physical verification work papers do capture the asset&lt;br&gt;identification numbers for assets physically verified&lt;/div&gt;&lt;div&gt;&lt;br&gt;&lt;/div&gt;&lt;div&gt;3. Verify the discrepancies noted, based on physical verification undertaken&lt;br&gt;and the manner in which such discrepancies have been dealt with in the&lt;br&gt;entity’s books and financial statements&lt;/div&gt;&lt;div&gt;&lt;br&gt;&lt;/div&gt;&lt;div&gt;&lt;br&gt;&lt;/div&gt;&lt;div&gt;&lt;br&gt;&lt;/div&gt;&lt;div&gt;&lt;u&gt;&lt;b&gt;Valuation&lt;/b&gt;&lt;/u&gt;&lt;/div&gt;&lt;div&gt;&lt;br&gt;1. Verify that the entity has charged depreciation on all items of &lt;br&gt;&lt;/div&gt;&lt;div&gt;PPE(except land)&lt;/div&gt;&lt;div&gt;&lt;br&gt;&lt;/div&gt;&lt;div&gt;2. Verify that the depreciation method used reflects the pattern in which the&lt;br&gt;asset’s future economic benefits are expected to be consumed by the&lt;br&gt;entity&lt;/div&gt;&lt;div&gt;&lt;br&gt;&lt;/div&gt;&lt;div&gt;3. verify if the management has undertaken an&lt;br&gt;impairment assessment to determine whether an item of property, plant&lt;br&gt;and equipment is impaired.&lt;/div&gt;&lt;div&gt;&lt;br&gt;&lt;/div&gt;&lt;div&gt;&lt;br&gt;&lt;/div&gt;&lt;div&gt;&lt;br&gt;&lt;/div&gt;&lt;div&gt;&lt;u&gt;&lt;b&gt;Rights and Obligation&lt;/b&gt;&lt;/u&gt;&lt;/div&gt;&lt;div&gt;&lt;u&gt;&lt;b&gt;&lt;/b&gt;&lt;/u&gt;&lt;br&gt;1. verify that all PPE purchase&lt;br&gt;invoices are in the name of the entity that entitles legal &lt;br&gt;&lt;/div&gt;&lt;div&gt;title of ownership to the respective entity.&lt;/div&gt;&lt;div&gt;&lt;br&gt;&lt;/div&gt;&lt;div&gt;&amp;nbsp;2. For all additions to land, building obtain&lt;br&gt;copies of conveyance deed/ sale deed to establish whether the entity is&lt;br&gt;mentioned to be the legal and valid owner.&lt;/div&gt;&lt;div&gt;&lt;br&gt;&lt;/div&gt;&lt;div&gt;3. verify the register of charges, available with the entity to &lt;br&gt;&lt;/div&gt;&lt;div&gt;assess the PPE that has been given as security to any third parties&lt;/div&gt;&lt;div&gt;&lt;br&gt;&lt;/div&gt;&lt;div&gt;&lt;br&gt;&lt;/div&gt;&lt;div&gt;&lt;br&gt;&lt;/div&gt;&lt;div&gt;&lt;u&gt;&lt;b&gt;Completeness&lt;/b&gt;&lt;/u&gt;&lt;/div&gt;&lt;div&gt;&lt;u&gt;&lt;b&gt;&lt;/b&gt;&lt;/u&gt;&lt;br&gt;1. Verify the movement in the PPE schedule compiled by the management i.e. Opening + Additions - Deletions= Closing and tally the closing balance to the entity’s books of account.&lt;/div&gt;&lt;div&gt;&lt;br&gt;&lt;/div&gt;&lt;div&gt;2. Check the arithmetical accuracy of the movement in PPE schedule; tally&lt;br&gt;the opening balances to the previous year audited financial statements.&lt;/div&gt;&lt;div&gt;&lt;br&gt;&lt;/div&gt;&lt;div&gt;&lt;br&gt;&lt;/div&gt;&lt;div&gt;&lt;br&gt;&lt;/div&gt;&lt;div&gt;&lt;u&gt;&lt;b&gt;Presentation and Disclosure&lt;/b&gt;&lt;/u&gt;&lt;br&gt;as per AS/IND AS as applicable&lt;br&gt;&lt;/div&gt;" style="rounded=0;whiteSpace=wrap;html=1;" vertex="1" visible="0" parent="1">
          <mxGeometry x="-273.75" y="700" width="437.5" height="840" as="geometry" />
        </mxCell>
        <mxCell id="UfjtboCrBmcmnvGXadqM-8" value="&lt;div&gt;&lt;u&gt;&lt;b&gt;Existence&lt;/b&gt;&lt;/u&gt;&lt;/div&gt;&lt;div&gt;&lt;br&gt;&lt;/div&gt;&amp;nbsp;verify whether such intangible asset is in active use in the&lt;br&gt;production or supply of goods or services, for rental to others, or for&lt;br&gt;&lt;div&gt;administrative purposes.&lt;/div&gt;&lt;div&gt;&lt;br&gt;&lt;/div&gt;&lt;div&gt;&amp;nbsp;In case any intangible asset is not in active use, amortization charge&lt;/div&gt;&lt;div&gt; should have ceased to be charged beyond the date of deletion.&lt;/div&gt;&lt;div&gt;&lt;br&gt;&lt;/div&gt;&lt;div&gt;&lt;br&gt;&lt;/div&gt;&lt;div&gt;&lt;u&gt;&lt;b&gt;&lt;br&gt;&lt;/b&gt;&lt;/u&gt;&lt;/div&gt;&lt;div&gt;&lt;u&gt;&lt;b&gt;Valuation&lt;/b&gt;&lt;/u&gt;&lt;/div&gt;&lt;div&gt;&lt;br&gt;&lt;/div&gt;&amp;nbsp;Verify the movement in the Intangible assets schedule compiled by the&lt;br&gt;management i.e. Opening + Additions - Deletions= Closing and tally the&lt;br&gt;&lt;div&gt;closing balance to the entity’s books of account.&lt;/div&gt;&lt;div&gt;&lt;br&gt;&lt;/div&gt;&amp;nbsp;Check the arithmetical accuracy of the movement in intangible asset&lt;br&gt;schedule&lt;div&gt;&lt;br&gt;&lt;/div&gt;&amp;nbsp;For all material additions, verify if such expenditure meets the criterion for&lt;br&gt;&lt;div&gt;recognition of an intangible asset.&lt;/div&gt;&lt;div&gt;&lt;br&gt;&lt;/div&gt;&lt;div&gt;verify if amortization is charged to the accounts&lt;/div&gt;&lt;div&gt;&lt;br&gt;&lt;/div&gt;&amp;nbsp;Verify that the amortization method used reflects the pattern in which the&lt;br&gt;asset’s future economic benefits are expected to be consumed by the&lt;br&gt;&lt;div&gt;entity&lt;/div&gt;&lt;div&gt;&lt;br&gt;&lt;/div&gt;&lt;div&gt;&lt;br&gt;&lt;/div&gt;&lt;div&gt;&lt;br&gt;&lt;/div&gt;&lt;div&gt;&lt;u&gt;&lt;b&gt;Rights and Obligation&lt;/b&gt;&lt;/u&gt;&lt;/div&gt;&lt;div&gt;&lt;br&gt;&lt;/div&gt;an intangible asset shall be recognized if, and only if:&lt;br&gt;a. the said asset is identifiable;&lt;br&gt;b. the entity controls the asset&lt;br&gt;c. it is probable that future economic benefits associated with the asset will&lt;br&gt;flow to the entity;&lt;br&gt;d. the cost of the item can be measured reliably.&lt;br&gt;&lt;br&gt;&lt;div&gt;&lt;u&gt;&lt;b&gt;Presentation and Disclosure&lt;/b&gt;&lt;/u&gt;&lt;/div&gt;&lt;div&gt;as per AS/IND AS as applicable&lt;/div&gt;" style="rounded=0;whiteSpace=wrap;html=1;" vertex="1" visible="0" parent="1">
          <mxGeometry x="-101.87" y="700" width="413.75" height="620" as="geometry" />
        </mxCell>
        <mxCell id="UfjtboCrBmcmnvGXadqM-10" value="&lt;div&gt;&lt;u&gt;&lt;b&gt;Existence&lt;/b&gt;&lt;/u&gt;&lt;/div&gt;&lt;div&gt;&lt;br&gt;&lt;/div&gt;1. Check whether there are controls in place to ensure that the same&lt;br&gt;&lt;div&gt;purchase/ expense invoice cannot be recorded more than once&lt;/div&gt;&lt;br&gt;2. ensure that trade payable ledger reconciles to general ledger&lt;div&gt;&lt;br&gt;&lt;/div&gt;3. Calculate the accounts payable report total. Add up the expense/ liability&lt;br&gt;items on the accounts payable aging report to verify that the total traced to&lt;br&gt;&lt;div&gt;the general ledger is correct.&lt;/div&gt;&lt;div&gt;&lt;br&gt;&lt;/div&gt;&lt;div&gt;4. Investigate reconciling items.&lt;/div&gt;&lt;div&gt;&lt;br&gt;&lt;/div&gt;5. contact vendors directly and ask them to&lt;br&gt;confirm the amounts of accounts payable as of the end of the reporting&lt;br&gt;period for all significant account payable balances&lt;div&gt;&lt;br&gt;&lt;/div&gt;&lt;div&gt;&lt;br&gt;&lt;/div&gt;&lt;div&gt;&lt;br&gt;&lt;/div&gt;&lt;div&gt;&lt;u&gt;&lt;b&gt;Valuation&lt;/b&gt;&lt;/u&gt;&lt;/div&gt;&lt;div&gt;&lt;br&gt;&lt;/div&gt;&lt;div&gt;1. Obtain the ageing of payable balances, split between current, less than&lt;/div&gt;&lt;div&gt; 30 days old, 30-60 days old, 60-180 days old, 180- 365 days old and more&lt;br&gt;&lt;/div&gt;&lt;div&gt;than 365 days old &lt;br&gt;&lt;/div&gt;&lt;div&gt;&lt;br&gt;&lt;/div&gt;&lt;div&gt;2. obtain the list of vendors&lt;/div&gt;&amp;nbsp;with whom the Company has disputes and any claims from customers,&lt;br&gt;&lt;div&gt;under litigation and compare with previous year.&lt;/div&gt;&lt;div&gt;&lt;br&gt;&lt;/div&gt;&lt;div&gt;&lt;br&gt;&lt;/div&gt;&lt;div&gt;&lt;br&gt;&lt;/div&gt;&lt;div&gt;&lt;u&gt;&lt;b&gt;Completeness&lt;/b&gt;&lt;/u&gt;&lt;/div&gt;&lt;div&gt;&lt;br&gt;&lt;/div&gt;&lt;div&gt;1. All good received prior to the period/ year end should have been booked&lt;/div&gt;&lt;div&gt; in the form of purchases and included in trade creditors&lt;/div&gt;&lt;div&gt;&lt;br&gt;&lt;/div&gt;2. No goods received/ risk and rewards of ownership in goods transferred in&lt;br&gt;favour of the entity after the year- end should have been recorded as&lt;br&gt;&lt;div&gt;purchases and included in trade creditors for the period under audit.&lt;/div&gt;&lt;div&gt;&lt;br&gt;&lt;/div&gt;&lt;div&gt;&lt;br&gt;&lt;/div&gt;&lt;div&gt;&lt;br&gt;&lt;/div&gt;&lt;u&gt;&lt;b&gt;Presentation and Disclosure&lt;/b&gt;&lt;/u&gt;&lt;br&gt;as per AS/IND AS as applicable" style="rounded=0;whiteSpace=wrap;html=1;" vertex="1" visible="0" parent="1">
          <mxGeometry x="53.629999999999995" y="700" width="413.75" height="660" as="geometry" />
        </mxCell>
        <mxCell id="UfjtboCrBmcmnvGXadqM-12" value="&lt;div&gt;&lt;u&gt;&lt;b&gt;Existence&lt;/b&gt;&lt;/u&gt;&lt;/div&gt;&lt;div&gt;&lt;u&gt;&lt;b&gt;&lt;br&gt;&lt;/b&gt;&lt;/u&gt;&lt;/div&gt;&amp;nbsp;direct confirmation&lt;br&gt;&lt;div&gt;&lt;br&gt;&lt;/div&gt;&lt;div&gt;&lt;br&gt;&lt;/div&gt;&lt;div&gt;&lt;br&gt;&lt;/div&gt;&lt;div&gt;&lt;u&gt;&lt;b&gt;Valuation&lt;/b&gt;&lt;/u&gt;&lt;/div&gt;&lt;div&gt;&lt;br&gt;&lt;/div&gt;&amp;nbsp;Assess the allowance for doubtful accounts. Review the process followed&lt;br&gt;&lt;div&gt;by the Company to derive an allowance for doubtful accounts.&lt;/div&gt;&lt;br&gt;&amp;nbsp;Obtain the ageing report of loans and advances, split between not currently&lt;br&gt;due, 30 days old, 30-60 days old, 60- 180 days old, 180- 365 days old and&lt;br&gt;&lt;div&gt;more than 365 days old.&lt;br&gt;&lt;/div&gt;&lt;div&gt;&lt;br&gt;&lt;/div&gt;&lt;div&gt;obtain the list of loans and advances under litigation and compare with previous year.&lt;/div&gt;&lt;div&gt;&lt;br&gt;&lt;/div&gt;&lt;div&gt;&amp;nbsp;Assess bad loans/ advances written-offs. Prepare schedule of &lt;br&gt;&lt;/div&gt;&lt;div&gt;movements on Bad loans/ advances – Provision Accounts and &lt;br&gt;&lt;/div&gt;&lt;div&gt;loans/ advances written-off.&lt;br&gt;&lt;/div&gt;&lt;div&gt;&lt;br&gt;&lt;/div&gt;&lt;div&gt;&lt;br&gt;&lt;/div&gt;&lt;div&gt;&lt;br&gt;&lt;/div&gt;&lt;div&gt;&lt;u&gt;&lt;b&gt;Completeness&lt;/b&gt;&lt;/u&gt;&lt;/div&gt;&lt;div&gt;&lt;br&gt;&lt;/div&gt;&amp;nbsp;Obtain a list of all advances and other current assets and compare them&lt;br&gt;&lt;div&gt;with balances in the ledger&lt;/div&gt;&lt;div&gt;&lt;br&gt;&lt;/div&gt;&amp;nbsp;Inspect loan agreements and acknowledgements of parties in respect of&lt;br&gt;&lt;div&gt;outstanding loans&lt;/div&gt;&lt;div&gt;&lt;br&gt;&lt;/div&gt;&amp;nbsp;Inspect the minutes of meeting of board of directors to confirm if all&lt;br&gt;&lt;div&gt;material loans and advances were approved by the board of directors&lt;/div&gt;&lt;div&gt;&lt;br&gt;&lt;/div&gt;&lt;div&gt;&lt;br&gt;&lt;/div&gt;&lt;div&gt;&lt;br&gt;&lt;/div&gt;&lt;u&gt;&lt;b&gt;Presentation and Disclosure&lt;/b&gt;&lt;/u&gt;&lt;br&gt;as per AS/IND AS as applicable" style="rounded=0;whiteSpace=wrap;html=1;" vertex="1" visible="0" parent="1">
          <mxGeometry x="213.12" y="700" width="413.75" height="580" as="geometry" />
        </mxCell>
        <mxCell id="UfjtboCrBmcmnvGXadqM-14" value="&lt;div&gt;&lt;u&gt;&lt;b&gt;Existence/Completeness/Valuation&lt;/b&gt;&lt;/u&gt;&lt;/div&gt;&lt;div&gt;&lt;br&gt;&lt;/div&gt;&amp;nbsp;Obtain the underlying working and the basis for each of the provisions&lt;br&gt;made, from the management and verify whether the same is complete and&lt;br&gt;&lt;div&gt;accurate.&lt;/div&gt;&lt;div&gt;&lt;br&gt;&lt;/div&gt;&amp;nbsp;Wherever required, obtain experts report, calculation and underlying&lt;br&gt;working for the provision amount&lt;div&gt;&lt;br&gt;&lt;/div&gt;&lt;div&gt;&lt;br&gt;&lt;/div&gt;&lt;div&gt;&lt;br&gt;&lt;/div&gt;&lt;u&gt;&lt;b&gt;Presentation and Disclosure&lt;/b&gt;&lt;/u&gt;&lt;br&gt;as per AS/IND AS as applicable " style="rounded=0;whiteSpace=wrap;html=1;" vertex="1" visible="0" parent="1">
          <mxGeometry x="373.63" y="700" width="413.75" height="200" as="geometry" />
        </mxCell>
        <mxCell id="UfjtboCrBmcmnvGXadqM-16" value="&lt;div&gt;&lt;u&gt;&lt;b&gt;Occurrence&lt;/b&gt;&lt;/u&gt;:&lt;/div&gt;&lt;div&gt;&lt;br&gt;&lt;/div&gt;&amp;nbsp;Check whether a single sales invoice is recorded twice or a cancelled&lt;br&gt;&lt;div&gt;sales invoice could also be recorded&lt;/div&gt;&lt;div&gt;&lt;br&gt;&lt;/div&gt;&amp;nbsp;Whether any shipments were done without the consent and agreement of&lt;br&gt;&lt;div&gt;the customer.&lt;/div&gt;&lt;div&gt;&lt;br&gt;&lt;/div&gt;&amp;nbsp;Vouch from the sales journal to the supporting documents&lt;br&gt;&lt;div&gt;&lt;br&gt;&lt;/div&gt;&lt;div&gt;&lt;br&gt;&lt;/div&gt;&lt;div&gt;&lt;br&gt;&lt;/div&gt;&lt;div&gt;&lt;u&gt;&lt;b&gt;Measurement&lt;/b&gt;&lt;/u&gt;:&lt;/div&gt;&lt;div&gt;&lt;br&gt;&lt;/div&gt;&amp;nbsp;If there are any export sales, consider calculating/reviewing “Exchange&lt;br&gt;&lt;div&gt;gain/ loss” arising from the sales&lt;/div&gt;&lt;div&gt;&lt;br&gt;&lt;/div&gt;&lt;div&gt;&amp;nbsp;Recalculate prices and extensions on sales invoice&lt;/div&gt;&lt;div&gt;&lt;br&gt;&lt;/div&gt;&lt;div&gt;&amp;nbsp;Trace a few transactions from inception to completion&lt;/div&gt;&lt;div&gt;&lt;br&gt;&lt;/div&gt;&lt;div&gt;&amp;nbsp;Compare the rate of sales with related parties and value of such &lt;br&gt;&lt;/div&gt;&lt;div&gt;transactions were reasonable and at arm’s length&lt;/div&gt;&lt;div&gt;&lt;br&gt;&lt;/div&gt;&lt;div&gt;&lt;br&gt;&lt;/div&gt;&lt;div&gt;&lt;br&gt;&lt;/div&gt;&lt;div&gt;&lt;u&gt;&lt;b&gt;Completeness&lt;/b&gt;&lt;/u&gt;&lt;/div&gt;&lt;div&gt;&lt;u&gt;&lt;b&gt;&lt;br&gt;&lt;/b&gt;&lt;/u&gt;&lt;/div&gt;&amp;nbsp;Perform cut-off test to ensure that revenues are recognised in the current&lt;br&gt;accounting period and sales were not tampered towards the period end&lt;br&gt;&amp;nbsp;&lt;br&gt;&lt;div&gt;&lt;br&gt;&lt;/div&gt;&lt;div&gt;&lt;u&gt;&lt;b&gt;&lt;br&gt;&lt;/b&gt;&lt;/u&gt;&lt;/div&gt;&lt;div&gt;&lt;u&gt;&lt;b&gt;Presentation and Disclosure&lt;/b&gt;&lt;/u&gt;&lt;br&gt;&lt;/div&gt;as per AS/IND AS as applicable" style="rounded=0;whiteSpace=wrap;html=1;" vertex="1" visible="0" parent="1">
          <mxGeometry x="533.63" y="700" width="413.75" height="520" as="geometry" />
        </mxCell>
        <mxCell id="UfjtboCrBmcmnvGXadqM-18" value="&lt;div&gt;&lt;u&gt;&lt;b&gt;Occurrence/Completeness/Measurement&lt;/b&gt;&lt;/u&gt;&lt;/div&gt;&lt;div&gt;&lt;br&gt;&lt;/div&gt;&amp;nbsp;For verifying interest income on Fixed deposit:&lt;br&gt;a) Obtain a listing of fixed deposits opened during the period, applicable interest rate and number of days for which the deposit was outstanding during the period. Verify the arithmetical accuracy of the interest calculation made by the entity &lt;br&gt;&lt;div&gt;&lt;br&gt;&lt;/div&gt;b)direct confirmation obtained from the respective bank/ financial&lt;br&gt;&lt;div&gt;institution&lt;/div&gt;&lt;div&gt;&lt;br&gt;&lt;/div&gt;c) Obtain a confirmation of interest income from the bank and verify that&lt;br&gt;the interest income as per bank reconciles to the calculation shared by&lt;br&gt;&lt;div&gt;the entity&lt;/div&gt;&lt;div&gt;&lt;br&gt;&lt;/div&gt;&lt;div&gt;&amp;nbsp;For Dividends, verify that the same are recognized in the statement of &lt;br&gt;&lt;/div&gt;&lt;div&gt;profit and loss only when the entity’s right to receive payment of the&lt;br&gt;dividend is established, provided it is probable that the economic benefits&lt;br&gt;associated with the dividend will flow to the entity and the amount of the&lt;br&gt;dividend can be measured reliably.&lt;br&gt;&amp;nbsp;Verify that Gain/(loss) on sale of investment in mutual funds is recorded&lt;br&gt;as other income only on transfer of title from the entity and is determined&lt;br&gt;as the difference between the redemption price and carrying value of the&lt;br&gt;investments. For the purpose, obtain the mutual fund statement and trace&lt;br&gt;the gain / loss as recorded in the books of account to the gain/ loss as&lt;br&gt;reflected in the statement.&lt;/div&gt;&lt;div&gt;&lt;br&gt;&lt;/div&gt;&lt;div&gt;&lt;br&gt;&lt;/div&gt;&lt;div&gt;&lt;br&gt;&lt;/div&gt;&lt;div&gt;&lt;u&gt;&lt;b&gt;Presentation and Disclosure&lt;/b&gt;&lt;/u&gt;&lt;br&gt;as per AS/IND AS as applicable&lt;br&gt;&lt;/div&gt;" style="rounded=0;whiteSpace=wrap;html=1;" vertex="1" parent="1">
          <mxGeometry x="773.62" y="720" width="413.75" height="520" as="geometry" />
        </mxCell>
      </root>
    </mxGraphModel>
  </diagram>
</mxfile>
